<svg xmlns="http://www.w3.org/2000/svg" viewBox="0 0 468 468"><path fill="#4c4c4c" d="M125.622 269.3c-11.472 0-20.804-9.331-20.804-20.8 0-11.469 9.332-20.8 20.804-20.8s20.804 9.331 20.804 20.8c0 11.469-9.332 20.8-20.804 20.8zm0-31.6c-5.957 0-10.804 4.845-10.804 10.8s4.847 10.8 10.804 10.8 10.804-4.845 10.804-10.8-4.847-10.8-10.804-10.8zm216.155 31.6c-11.472 0-20.805-9.331-20.805-20.8 0-11.469 9.333-20.8 20.805-20.8s20.804 9.331 20.804 20.8c0 11.469-9.332 20.8-20.804 20.8zm0-31.6c-5.958 0-10.805 4.845-10.805 10.8s4.847 10.8 10.805 10.8c5.957 0 10.804-4.845 10.804-10.8s-4.847-10.8-10.804-10.8zM226.328 92.512h.01-.01zm142.476-15.205.004.003-.004-.003zm-.005-.003.002.001-.002-.001zm-.003-.002zm1.921-9.137zm-7.493-14.36zm.005-.007-.002.002.002-.002zm.006-.007-.003.003.003-.003zm.008-.008-.006.006.006-.006zm-8.654-2.394zM242.661 167.458a5 5 0 0 1-5-5v-14.843a5 5 0 1 1 10 0v14.843a5 5 0 0 1-5 5zm32 10a5 5 0 0 1-5-5v-14.843a5 5 0 1 1 10 0v14.843a5 5 0 0 1-5 5z"/><circle cx="125.623" cy="165.854" r="6.5" fill="#4c4c4c"/><path fill="#4c4c4c" d="M217.258 58.912c-12.127-8.881-22.514-14.395-31.085-16.519l-6.889-12.158c3.989-4.991 5.473-11.578 2.512-17.501-2.741-5.482-8.422-8.575-14.444-8.584-5.649-4.734-13.313-5.502-19.975-1.874-7.032 3.831-10.672 11.562-9.154 19.345-3.587 5.075-3.733 11.64-.291 17.044 3.311 5.196 9.004 7.837 14.864 7.049l6.892 12.163c-2.28 8.314-2.561 19.719-.817 34.156 3.054 25.271 33.059 39.796 54.994 27.083 21.883-12.681 23.897-45.189 3.393-60.204zm4.137 32.804c-1.089 7.787-5.726 14.797-12.545 18.75-15.811 9.164-37.842-1.352-40.052-19.631-2.503-20.714-.436-35.095 5.531-38.47 10.536-5.96 29.517 9.119 37.021 14.615 7.773 5.692 11.623 15.17 10.045 24.736zM378.56 53.315c-3.955-6.474-10.976-9.64-18.235-8.365-5.22-3.003-11.687-3.165-16.801.212-5.526 3.649-7.535 10.095-6.576 16.412l-12.046 7.085c-8.485-2.446-20.237-2.864-35.18-1.236-25.265 2.751-39.776 31.911-27.165 53.836 12.64 21.977 45.887 24.399 61.168 4.041 8.729-11.63 14.188-21.648 16.372-29.988l12.05-7.088c4.681 3.613 10.932 4.172 16.398 1.327 5.683-2.959 8.839-8.718 8.27-14.906 5.205-5.982 5.919-14.496 1.745-21.33zm-62.833 65.983c-11.054 14.726-35.391 12.817-44.502-3.024-3.929-6.832-4.439-15.221-1.489-22.51 3.417-9.073 11.49-15.357 21.068-16.4 9.246-1.008 33.224-4.577 39.368 5.852 3.481 5.906-1.92 19.394-14.445 36.082z"/><path fill="#4c4c4c" d="M407.894 223.412h-15.805v-26.899a5 5 0 0 0-5-5H219.027c-7.477-19.133-28.349-33.966-49.341-30.605L98.983 74.552C87.798 61.425 67.278 59.88 54.87 72.283c-12.358 12.355-11.316 33.32 2.293 44.323l46.195 37.33c3.27 2.642 8.142.315 8.142-3.889 0-1.51-.683-2.939-1.857-3.889l-46.194-37.329c-9.092-7.351-9.762-21.224-1.509-29.475 8.113-8.11 22.035-7.294 29.309 1.536l72.614 88.691a5.003 5.003 0 0 0 5.11 1.676c15.57-3.99 32.075 6.782 39.102 20.256H81.011a5 5 0 0 0-5 5v26.898H60.685c-14.631 0-26.956 11.973-26.681 26.602.268 14.215 11.874 25.696 26.101 25.696H76.01v53.212c-1.069 6.421-.2 13.494-.2 19.984 0 17.789 10.384 33.192 25.406 40.491v39.206c0 11.829 14.225 21.91 41.136 29.152C166.905 464.361 199.471 468 234.05 468s67.145-3.639 91.697-10.246c26.91-7.242 41.135-17.322 41.135-29.152v-39.315c14.914-7.337 25.207-22.673 25.207-40.382v-73.196h15.905c14.172 0 26.127-12.014 26.005-26.199 0-14.39-11.711-26.098-26.105-26.098zM76.011 265.71H60.105c-8.88 0-16.105-7.267-16.105-16.2 0-8.877 7.225-16.099 16.105-16.099H76.01v32.299zm35.306 121.194c0-5.497 8.634-17.271 16.307-25.86 7.671 8.582 16.304 20.352 16.304 25.86 0 8.546-7.314 15.499-16.306 15.499-8.99 0-16.305-6.953-16.305-15.499zm96.098 39.703c-29.739-2.253-54.324-8.156-71.198-15.609 8.051-2.706 14.322-9.107 16.682-17.094h54.957c-6.416 10.606-8.524 22.203-.441 32.703zM184.037 353.3c-8.271 0-15-6.729-15-15s6.729-15 15-15 15 6.729 15 15-6.728 15-15 15zm45.411 74.102c-9.708 0-17.605-7.671-17.605-17.099 0-6.097 9.369-19.068 17.605-28.403 8.236 9.334 17.606 22.306 17.606 28.403.001 9.428-7.898 17.099-17.606 17.099zm21.56-.203c8.581-10.529 6.588-22.459.033-33.295h63.633c1.628 8.063 7.177 14.781 14.649 18.187-18.636 7.711-45.75 13.573-78.315 15.108zm11.678-90.875c.836-6.637 6.261-12.062 12.898-12.899a15.55 15.55 0 0 1 1.955-.123c3.992 0 7.784 1.548 10.627 4.391 3.304 3.304 4.859 7.889 4.269 12.581-.835 6.637-6.259 12.062-12.896 12.9-4.688.593-9.279-.961-12.585-4.267-3.304-3.303-4.859-7.889-4.268-12.583zm77.791 68.179c-8.991 0-16.306-6.953-16.306-15.499 0-5.497 8.635-17.271 16.307-25.86 7.672 8.583 16.305 20.353 16.305 25.86-.001 8.546-7.315 15.499-16.306 15.499zm41.612-96.498c-11.329-13.467-30.869-17.898-46.838-10.385-6.656-30.032-45.356-40.888-66.697-18.731-11.119-34.253-60.046-38.231-76.183-5.83-22.614-14.655-53.769-1.564-59.679 24.515-15.654-7.597-35.473-2.955-46.682 10.149v-106.21h296.078v106.492zm37.263-47.045c-3.037 3.063-7.07 4.75-11.357 4.75H392.09v-32.299h15.805c13.947 0 21.336 17.586 11.457 27.549z"/></svg>